<svg width="180" height="180" viewBox="0 0 180 180" fill="none" xmlns="http://www.w3.org/2000/svg">
  <defs>
    <linearGradient id="gradExamBot" x1="0" y1="0" x2="180" y2="180" gradientUnits="userSpaceOnUse">
      <stop offset="0.2" stop-color="#FFDB6E"/>
      <stop offset="1" stop-color="#FFBC5E"/>
    </linearGradient>
  </defs>

  <!-- Chat bubble -->
  <rect x="40" y="60" width="100" height="70" rx="20"
        stroke="url(#gradExamBot)" stroke-width="3" fill="none"/>
  <polygon points="100,130 120,130 90,145"
        stroke="url(#gradExamBot)" stroke-width="3" fill="none"/>

  <!-- Document/PDF inside -->
  <rect x="55" y="70" width="40" height="50" stroke="url(#gradExamBot)" stroke-width="2" fill="none"/>
  <line x1="60" y1="85" x2="85" y2="85" stroke="url(#gradExamBot)" stroke-width="1.5"/>
  <line x1="60" y1="95" x2="85" y2="95" stroke="url(#gradExamBot)" stroke-width="1.5"/>
  <line x1="60" y1="105" x2="85" y2="105" stroke="url(#gradExamBot)" stroke-width="1.5"/>

  <!-- Proper graduation cap (shifted upward & left for spacing) -->
  <!-- <g transform="translate(50,30) rotate(-20)">

    <polygon points="0,0 35,10 0,20 -35,10"
             stroke="url(#gradExamBot)" stroke-width="2" fill="none"/>

    <ellipse cx="0" cy="20" rx="15" ry="4"
             stroke="url(#gradExamBot)" stroke-width="2" fill="none"/>
    <line x1="-15" y1="20" x2="-15" y2="28" stroke="url(#gradExamBot)" stroke-width="2"/>
    <line x1="15" y1="20" x2="15" y2="28" stroke="url(#gradExamBot)" stroke-width="2"/>
    <ellipse cx="0" cy="28" rx="15" ry="4"
             stroke="url(#gradExamBot)" stroke-width="2" fill="none"/>

    <line x1="-36" y1="9" x2="-36" y2="25" stroke="url(#gradExamBot)" stroke-width="2"/>
    <circle cx="-36" cy="27" r="3" fill="url(#gradExamBot)"/>
  </g> -->
</svg>
